<svg xmlns="http://www.w3.org/2000/svg" viewBox="0 0 109.73 92.66"><defs><style>.cls-1{fill:#c8a177;}.cls-2{fill:#9c8cbe;}.cls-3{fill:#eba4c3;}.cls-4{fill:#5970a5;}.cls-5{fill:#4f455a;}.cls-6{fill:#fff;}</style></defs><title>rectangle_color</title><g id="レイヤー_2" data-name="レイヤー 2"><g id="レイヤー_1-2" data-name="レイヤー 1"><path class="cls-1" d="M39.13,47.05c0-.5,0-.88,0-1.25q0-16.35,0-32.68c0-1.4-.15-.92.7-2.07.54-.72,1.08-1.42,1.63-2.13.11-.14.24-.27.34-.39.09,0,.13,0,.14.06a.14.14,0,0,1,0,.09q0,20.45,0,40.89a1.09,1.09,0,0,1-.08.28.92.92,0,0,1-.27.08H10.62a.93.93,0,0,1-.28-.08,1,1,0,0,1,.08-.27L12,47.45a.85.85,0,0,1,.82-.38h25Z"/><path class="cls-2" d="M33.38,53.84l.91-2.54a25.78,25.78,0,0,1,2.92-.06,2.91,2.91,0,0,1-.08.6c-.59,1.75-1.2,3.49-1.81,5.23a3.64,3.64,0,0,1-.16.36,1.78,1.78,0,0,1-.92-.21L20,52.28l-2-.69a5.59,5.59,0,0,1-.58-.3c.31,0,.42,0,.53,0h7.26a3.81,3.81,0,0,1,1.3.26l5.68,2Z"/><path class="cls-2" d="M43.33,33.34v-.76c0-2.2,0-4.39,0-6.59a4.47,4.47,0,0,1,.24-1.49c.95-2.7,1.9-5.4,2.81-8.1a2.13,2.13,0,0,1,1-1.24c.87-.53,1.7-1.12,2.55-1.68.15-.1.32-.18.49-.28,0,.11.08.18.06.23L43.65,33.07a1.87,1.87,0,0,1-.17.31Z"/><path class="cls-2" d="M43.38,12a26.86,26.86,0,0,1,0-3A24.57,24.57,0,0,1,46,9.84c.84.28,1.68.59,2.6.91a1.91,1.91,0,0,1-.33.35l-2.54,1.7Z"/><path class="cls-2" d="M25.28,17.73c-4.26.07-5.17,2.28-5.2,3.55l0,2.41,4.89-.09v.49l-7.29.12c-1.62,0-3.5,1.33-3.56,4.95S15.86,34,17.48,34l2.89,0,0-2.93a2,2,0,0,1,2-2l5.88-.1a1.5,1.5,0,0,0,1.49-1.49l.1-6.32C29.9,19.41,28.31,17.68,25.28,17.73Zm-2.22,3.78a.68.68,0,0,1,0-1.36.68.68,0,0,1,0,1.36Z"/><path class="cls-3" d="M33.47,24.62l-2.89.05,0,2.94a2,2,0,0,1-2,2l-5.87.09a1.52,1.52,0,0,0-1.5,1.49l-.1,6.32c0,1.71,1.56,3.44,4.59,3.39,4.26-.07,5.18-2.28,5.2-3.55l0-2.4L26,35v-.49l7.3-.12c1.61,0,3.49-1.33,3.55-4.95S35.08,24.6,33.47,24.62ZM27.89,37.11a.68.68,0,1,1-.69.68A.68.68,0,0,1,27.89,37.11Z"/><path class="cls-4" d="M11.21,10.41c0,.49,0,.87,0,1.25q0,16.34.07,32.67c0,1.4.16.93-.69,2.08L9,48.54a4.38,4.38,0,0,1-.35.38c-.08,0-.12,0-.14-.05a.14.14,0,0,1,0-.09L8.32,7.89a1.09,1.09,0,0,1,.08-.28,1,1,0,0,1,.27-.08l31.05-.08a1.21,1.21,0,0,1,.28.08.86.86,0,0,1-.08.27c-.53.71-1.08,1.42-1.61,2.14a.86.86,0,0,1-.81.38h-.77l-24.26.06Z"/><path class="cls-3" d="M17,3.59l-.9,2.55a25.78,25.78,0,0,1-2.92.06,4.32,4.32,0,0,1,.07-.6C13.8,3.86,14.4,2.11,15,.37c0-.12.1-.23.15-.35a1.68,1.68,0,0,1,.92.2L30.35,5.13l2,.68c.14.05.26.13.58.29a5.05,5.05,0,0,1-.53.06c-2.42,0-4.84,0-7.26,0a3.81,3.81,0,0,1-1.3-.26L18.14,4Z"/><path class="cls-3" d="M7.06,24.13v.76c0,2.19,0,4.38,0,6.58A4.47,4.47,0,0,1,6.84,33c-.94,2.7-1.88,5.4-2.79,8.11a2.12,2.12,0,0,1-.95,1.24C2.23,42.84,1.4,43.43.55,44c-.15.1-.32.18-.48.28,0-.11-.08-.18-.07-.23q3.36-9.82,6.73-19.66c0-.11.12-.2.17-.31Z"/><path class="cls-3" d="M7.06,45.5a26.84,26.84,0,0,1,0,3,24.76,24.76,0,0,1-2.68-.85c-.84-.28-1.68-.59-2.6-.91a2.91,2.91,0,0,1,.33-.35l2.53-1.7Z"/><path class="cls-2" d="M38.75,91l.66-6.32h2.11a1.76,1.76,0,0,1,1.32.44,1.51,1.51,0,0,1,.34,1.29l-.08.8a1.81,1.81,0,0,1-.61,1.27,2.16,2.16,0,0,1-1.41.43h-1L39.86,91Zm1.42-3H41a1,1,0,0,0,.7-.21,1.14,1.14,0,0,0,.29-.7l.06-.66a.88.88,0,0,0-.14-.71.83.83,0,0,0-.65-.21h-.85Z"/><path class="cls-2" d="M44.49,92.66a3.54,3.54,0,0,1-.45,0l-.53-.06.19-.85.42.07.34,0a1,1,0,0,0,.69-.22,1.54,1.54,0,0,0,.36-.62l0-.08h-.69l-.73-4.63h1.1l.55,4,1.35-4H48.2l-1.77,5a2.36,2.36,0,0,1-.76,1.1A2,2,0,0,1,44.49,92.66Z"/><path class="cls-2" d="M51.07,91.1a1.27,1.27,0,0,1-1.43-1.57l.26-2.4h-.79l.08-.85H50l.17-1.58h1.11l-.17,1.58h1.37l-.09.85H51l-.24,2.33a.79.79,0,0,0,.1.59.52.52,0,0,0,.44.19,1.88,1.88,0,0,0,.31,0l.37-.12,0,.83a2,2,0,0,1-.43.13A2.24,2.24,0,0,1,51.07,91.1Z"/><path class="cls-2" d="M53.54,91l.66-6.32h1.12L55.08,87h.2a1.35,1.35,0,0,1,.53-.58,1.39,1.39,0,0,1,.75-.21,1,1,0,0,1,.86.41,1.61,1.61,0,0,1,.22,1.12L57.29,91H56.18l.32-3.11a.94.94,0,0,0-.08-.61.45.45,0,0,0-.4-.2,1,1,0,0,0-.54.18,2.27,2.27,0,0,0-.49.49L54.65,91Z"/><path class="cls-2" d="M60.78,91.1a1.8,1.8,0,0,1-1.32-.46,1.51,1.51,0,0,1-.38-1.29L59.23,88a1.88,1.88,0,0,1,.66-1.33,2.12,2.12,0,0,1,1.41-.46,1.76,1.76,0,0,1,1.31.46A1.55,1.55,0,0,1,63,88l-.14,1.36a1.84,1.84,0,0,1-.65,1.29A2.14,2.14,0,0,1,60.78,91.1Zm.08-.85a.79.79,0,0,0,.61-.22,1.21,1.21,0,0,0,.26-.72L61.87,88a1.07,1.07,0,0,0-.11-.72.63.63,0,0,0-.56-.22.72.72,0,0,0-.6.23,1.26,1.26,0,0,0-.26.71l-.13,1.32a1,1,0,0,0,.1.72A.61.61,0,0,0,60.86,90.25Z"/><path class="cls-2" d="M64.28,91l.5-4.74H65.9l-.08.71H66a1.41,1.41,0,0,1,.53-.58,1.45,1.45,0,0,1,.76-.21,1,1,0,0,1,.86.42,1.59,1.59,0,0,1,.21,1.11L68,91H66.92l.33-3.11a1,1,0,0,0-.08-.61.45.45,0,0,0-.4-.2.92.92,0,0,0-.54.18,1.9,1.9,0,0,0-.49.49L65.4,91Z"/><path class="cls-2" d="M76.58,91l-1.41-5-.53,5h-1l.66-6.32h1.51l1.42,4.87.51-4.87h1L78.08,91Z"/><path class="cls-2" d="M83.59,90a1.74,1.74,0,0,1-.76.86,2.49,2.49,0,0,1-1.25.28,1.76,1.76,0,0,1-1.33-.46,1.49,1.49,0,0,1-.36-1.28L80,87.94a1.79,1.79,0,0,1,.64-1.28,2.11,2.11,0,0,1,1.42-.46,1.76,1.76,0,0,1,1.32.47A1.55,1.55,0,0,1,83.78,88l-.09.88H81.06l-.06.51a1,1,0,0,0,.12.73.71.71,0,0,0,.61.22,1,1,0,0,0,.59-.14,1.14,1.14,0,0,0,.36-.49Zm-2.44-2,0,.26h1.52l0-.21a1.18,1.18,0,0,0-.1-.78A.61.61,0,0,0,82,87a.75.75,0,0,0-.6.22A1.31,1.31,0,0,0,81.15,87.94Z"/><path class="cls-2" d="M88.36,91,88,88l-1,3H85.72l-.49-4.74h1L86.53,90l1-3h1L89,90l1.08-3.68h1L89.52,91Z"/><path class="cls-2" d="M94.41,91l.67-6.32h3.79l-.09.87H96.1l-.17,1.6h2.35l-.09.87H95.84l-.22,2.11H98.3l-.09.87Z"/><path class="cls-2" d="M99.78,91l.5-4.74h1.11l-.07.71h.2a1.22,1.22,0,0,1,.48-.6,1.16,1.16,0,0,1,.64-.19.85.85,0,0,1,.75.34,1.48,1.48,0,0,1,.16,1l-.09.81h-1l.07-.64a.65.65,0,0,0-.07-.41.32.32,0,0,0-.32-.16.84.84,0,0,0-.47.18,1.68,1.68,0,0,0-.43.48L100.89,91Z"/><path class="cls-2" d="M106,91.1a1.35,1.35,0,0,1-1-.36,1.16,1.16,0,0,1-.28-1,1.48,1.48,0,0,1,.49-1,1.68,1.68,0,0,1,1.09-.35h1.2l.07-.67a.59.59,0,0,0-.67-.73.92.92,0,0,0-.59.17,1.44,1.44,0,0,0-.34.64l-.94-.18a1.92,1.92,0,0,1,.73-1.08,2.26,2.26,0,0,1,1.3-.34,2.08,2.08,0,0,1,1.26.34,1.13,1.13,0,0,1,.36,1.11l-.21,2c0,.25,0,.41.14.48a.93.93,0,0,0,.6,0l-.08.84a1.73,1.73,0,0,1-1,0,.69.69,0,0,1-.41-.66h-.18a1.73,1.73,0,0,1-.66.56A1.93,1.93,0,0,1,106,91.1Zm.33-.78a1.47,1.47,0,0,0,.54-.1,1.12,1.12,0,0,0,.47-.35l.09-.82h-1a.64.64,0,0,0-.41.14.7.7,0,0,0-.19.49.64.64,0,0,0,.09.48A.55.55,0,0,0,106.28,90.32Z"/><path class="cls-5" d="M49.35,49.58V31.65h4.5A4.06,4.06,0,0,1,57,32.78a4.71,4.71,0,0,1,1,3.31v2.58a4.49,4.49,0,0,1-1,3.22,4.13,4.13,0,0,1-3.1,1.1H50.76v6.59Zm1.41-7.84h3.05A2.75,2.75,0,0,0,55.94,41a3.5,3.5,0,0,0,.65-2.34V36.16a3.81,3.81,0,0,0-.65-2.47,2.66,2.66,0,0,0-2.13-.76H50.76Z"/><path class="cls-5" d="M63.3,54.2a4.93,4.93,0,0,1-.75-.06L61.71,54l.2-1.27.74.14a4,4,0,0,0,.72.06,1.84,1.84,0,0,0,1.4-.54,4.63,4.63,0,0,0,.86-1.9l.2-.86h-.58L61.64,36.13h1.5l3.07,12.06,3-12.06h1.44L66.77,51.08a5,5,0,0,1-1.39,2.42A3.21,3.21,0,0,1,63.3,54.2Z"/><path class="cls-5" d="M79.12,51.35a4.78,4.78,0,0,1-3.8-1.48A6.46,6.46,0,0,1,74,45.52V38.89a6.61,6.61,0,0,1,1.29-4.42A4.76,4.76,0,0,1,79.14,33a4.7,4.7,0,0,1,3.68,1.43,6.7,6.7,0,0,1,1.39,4.26l-1.42.14a6.44,6.44,0,0,0-1-3.51,3.21,3.21,0,0,0-2.65-1,3.33,3.33,0,0,0-2.81,1.11A6,6,0,0,0,75.44,39v6.37A5.78,5.78,0,0,0,76.31,49a4.18,4.18,0,0,0,5.55.07,5.83,5.83,0,0,0,.93-3.44l1.42.13A6.25,6.25,0,0,1,82.87,50,4.86,4.86,0,0,1,79.12,51.35Z"/><path class="cls-5" d="M92.86,50.57a3.73,3.73,0,0,1-3-1.25,5.35,5.35,0,0,1-1.06-3.56V41.59A5.51,5.51,0,0,1,89.85,38a4.18,4.18,0,0,1,6,0,5.57,5.57,0,0,1,1,3.63v4.17a5.4,5.4,0,0,1-1,3.56A3.7,3.7,0,0,1,92.86,50.57Zm0-1.27a2.33,2.33,0,0,0,2-.87,4.42,4.42,0,0,0,.65-2.65V41.59a4.7,4.7,0,0,0-.65-2.75,2.31,2.31,0,0,0-2-.88,2.33,2.33,0,0,0-2,.88,4.62,4.62,0,0,0-.66,2.75v4.19a4.34,4.34,0,0,0,.66,2.65A2.35,2.35,0,0,0,92.86,49.3Z"/><path class="cls-5" d="M101.09,50.35V36.91h1.41v1.77h.31a3.33,3.33,0,0,1,1.32-1.46,3.43,3.43,0,0,1,1.82-.54,2.93,2.93,0,0,1,2.38,1.1,4.45,4.45,0,0,1,.89,2.89v9.68h-1.41V41a3.57,3.57,0,0,0-.57-2.17,1.87,1.87,0,0,0-1.6-.76,3.3,3.3,0,0,0-1.71.48A4.46,4.46,0,0,0,102.5,40V50.35Z"/><path class="cls-5" d="M39.49,77.63a4,4,0,0,1-3.31-1.35A7.17,7.17,0,0,1,35,72l1.42-.13a7.18,7.18,0,0,0,.81,3.54,2.55,2.55,0,0,0,2.21.94,2.56,2.56,0,0,0,2.28-1,6,6,0,0,0,.68-3.28V60.75H38.77V59.48h5V72a6.79,6.79,0,0,1-1.09,4.21A3.84,3.84,0,0,1,39.49,77.63Z"/><path class="cls-5" d="M48.47,77.51V59.59H53a4,4,0,0,1,3.09,1.13,4.69,4.69,0,0,1,1,3.3V66.6a4.5,4.5,0,0,1-1,3.23A4.09,4.09,0,0,1,53,70.93h-3.1v6.58Zm1.41-7.84h3a2.7,2.7,0,0,0,2.13-.73,3.46,3.46,0,0,0,.65-2.34V64.09a3.77,3.77,0,0,0-.65-2.46,2.65,2.65,0,0,0-2.13-.77h-3Z"/><path class="cls-5" d="M63,76.49V72.74a6.37,6.37,0,0,1,.64-3.12,3.26,3.26,0,0,1,2.05-1.51l3-.88a2.21,2.21,0,0,0,1.35-1,4.1,4.1,0,0,0,.41-2V63.3a3.92,3.92,0,0,0-.71-2.6,2.89,2.89,0,0,0-2.29-.82,2.54,2.54,0,0,0-2.21.89,6.25,6.25,0,0,0-.78,3.17l-1.29-.13a6.69,6.69,0,0,1,1.14-3.94,3.8,3.8,0,0,1,3.12-1.24,4.26,4.26,0,0,1,3.21,1.13,4.67,4.67,0,0,1,1.1,3.39v1.21A5.14,5.14,0,0,1,71,67.11,3.54,3.54,0,0,1,69,68.55l-2.89.84a2.25,2.25,0,0,0-1.39,1.07,4.69,4.69,0,0,0-.43,2.24v2.53h7.58v1.26Z"/><path class="cls-6" d="M80,76.13a3.88,3.88,0,0,1-3.47-1.77,9.51,9.51,0,0,1-1.17-5.2V66.27A9.6,9.6,0,0,1,76.54,61a4.26,4.26,0,0,1,6.93,0,9.7,9.7,0,0,1,1.17,5.28v2.89a9.51,9.51,0,0,1-1.17,5.2A3.89,3.89,0,0,1,80,76.13Z"/><path class="cls-5" d="M80,76.71a4.46,4.46,0,0,1-4-2,10,10,0,0,1-1.27-5.51V66.27A10,10,0,0,1,76,60.68a4.49,4.49,0,0,1,4-2,4.44,4.44,0,0,1,4,2,10.25,10.25,0,0,1,1.27,5.59v2.89A10,10,0,0,1,84,74.67,4.45,4.45,0,0,1,80,76.71Zm0-16.92a3.32,3.32,0,0,0-3,1.52,9.13,9.13,0,0,0-1.08,5v2.89A9,9,0,0,0,77,74,3.67,3.67,0,0,0,83,74,9,9,0,0,0,84,69.16V66.27a9.27,9.27,0,0,0-1.07-5A3.28,3.28,0,0,0,80,59.79Z"/><path class="cls-5" d="M89.62,76.27V75h3.64V61.47H93a4.13,4.13,0,0,1-1.34,2.16,3.78,3.78,0,0,1-2.25.91l-.16-1.46A3.62,3.62,0,0,0,92,61.81a6,6,0,0,0,1.36-3.18h1.34V75H98v1.26Z"/><path class="cls-5" d="M104.88,76.71a4.93,4.93,0,0,1-3.19-.88,4.57,4.57,0,0,1-1.4-2.89l1.46-.31a3.8,3.8,0,0,0,.9,2.2,3.29,3.29,0,0,0,2.28.62,3,3,0,0,0,2.62-1.1,6.31,6.31,0,0,0,.8-3.62v-3h-.2a3,3,0,0,1-1.36,1.34,4.9,4.9,0,0,1-2.22.45,4.31,4.31,0,0,1-3.34-1.26,5.15,5.15,0,0,1-1.16-3.61V64a5.86,5.86,0,0,1,1.24-4,4.56,4.56,0,0,1,3.59-1.38,4.44,4.44,0,0,1,3.61,1.47,7.07,7.07,0,0,1,1.22,4.57v6.06a6.91,6.91,0,0,1-1.23,4.5A4.43,4.43,0,0,1,104.88,76.71Zm.05-8.51a3.4,3.4,0,0,0,2.58-.89,4,4,0,0,0,.84-2.8V64a4.7,4.7,0,0,0-.84-3.08,3.85,3.85,0,0,0-5.18,0,4.76,4.76,0,0,0-.82,3.08v.55a4,4,0,0,0,.82,2.8A3.42,3.42,0,0,0,104.93,68.2Z"/><path class="cls-3" d="M80,63.84A1.75,1.75,0,0,1,81.66,65a2.45,2.45,0,0,0-.37.08A2,2,0,0,0,80,66.33a1.93,1.93,0,0,0-1.26-1.26,2.21,2.21,0,0,0-.37-.08A1.75,1.75,0,0,1,80,63.84Zm-3.54,2.57a1.75,1.75,0,0,1,1.6-1.2,2.21,2.21,0,0,0,0,.37,2,2,0,0,0,.81,1.6,2,2,0,0,0-1.59.81,2.59,2.59,0,0,0-.19.33A1.75,1.75,0,0,1,76.49,66.41Zm1.35,4.15a1.74,1.74,0,0,1-.64-1.89,2.07,2.07,0,0,0,.34.15,1.86,1.86,0,0,0,.61.1,2,2,0,0,0,1.16-.38,2,2,0,0,0,.28,1.77,3.33,3.33,0,0,0,.25.28A1.75,1.75,0,0,1,77.84,70.56Zm4.37,0a1.76,1.76,0,0,1-2,0,2.18,2.18,0,0,0,.25-.28,2,2,0,0,0,.28-1.77,2,2,0,0,0,1.16.38,1.86,1.86,0,0,0,.61-.1,2.07,2.07,0,0,0,.34-.15A1.72,1.72,0,0,1,82.21,70.56ZM83,68.32a2.59,2.59,0,0,0-.19-.33,2,2,0,0,0-1.59-.81,2,2,0,0,0,.81-1.6,2.21,2.21,0,0,0,0-.37,1.74,1.74,0,0,1,1,3.11Z"/></g></g></svg>