<?xml version="1.0" encoding="UTF-8" standalone="no"?><svg xmlns="http://www.w3.org/2000/svg" xmlns:xlink="http://www.w3.org/1999/xlink" contentScriptType="application/ecmascript" contentStyleType="text/css" height="208px" preserveAspectRatio="none" style="width:606px;height:208px;background:#FFFFFF;" version="1.1" viewBox="0 0 606 208" width="606px" zoomAndPan="magnify"><defs/><g><!--MD5=[b9de251bd519f6fe970f470f555423d1]
class ログ解析--><rect codeLine="14" fill="#F8F8F8" height="23.9688" id="ログ解析" style="stroke:#383838;stroke-width:1.5;" width="54" x="205" y="91.5"/><text fill="#000000" font-family="sans-serif" font-size="12" lengthAdjust="spacing" textLength="48" x="208" y="107.6387">ログ解析</text><path d="M6,91 L6,116.1328 A0,0 0 0 0 6,116.1328 L170,116.1328 A0,0 0 0 0 170,116.1328 L170,109 L204.93,103.5 L170,101 L170,101 L160,91 L6,91 A0,0 0 0 0 6,91 " fill="#EBEBEB" style="stroke:#383838;stroke-width:1.0;"/><path d="M160,91 L160,101 L170,101 L160,91 " fill="#EBEBEB" style="stroke:#383838;stroke-width:1.0;"/><text fill="#000000" font-family="sans-serif" font-size="13" lengthAdjust="spacing" textLength="143" x="12" y="108.0669">v2.0.1のパーサーを使う</text><!--MD5=[a39b4b88ed57e8f8291643a52c7060c0]
class ファイル処理--><rect codeLine="17" fill="#F8F8F8" height="23.9688" id="ファイル処理" style="stroke:#383838;stroke-width:1.5;" width="78" x="294" y="91.5"/><text fill="#000000" font-family="sans-serif" font-size="12" lengthAdjust="spacing" textLength="72" x="297" y="107.6387">ファイル処理</text><path d="M407,91 L407,99.5 L372.3,103.5 L407,107.5 L407,116.1328 A0,0 0 0 0 407,116.1328 L571,116.1328 A0,0 0 0 0 571,116.1328 L571,101 L561,91 L407,91 A0,0 0 0 0 407,91 " fill="#EBEBEB" style="stroke:#383838;stroke-width:1.0;"/><path d="M561,91 L561,101 L571,101 L561,91 " fill="#EBEBEB" style="stroke:#383838;stroke-width:1.0;"/><text fill="#000000" font-family="sans-serif" font-size="13" lengthAdjust="spacing" textLength="143" x="413" y="108.0669">v2.0.2のパーサーを使う</text><!--MD5=[afe35d6993163e055b35cf452f4dc3f2]
class パーサー--><rect codeLine="20" fill="#F8F8F8" height="23.9688" id="パーサー" style="stroke:#383838;stroke-width:1.5;" width="54" x="255" y="176.5"/><text fill="#000000" font-family="sans-serif" font-size="12" lengthAdjust="spacing" textLength="48" x="258" y="192.6387">パーサー</text><path d="M344.5,176 L344.5,184.5 L309.09,188.5 L344.5,192.5 L344.5,201.1328 A0,0 0 0 0 344.5,201.1328 L599.5,201.1328 A0,0 0 0 0 599.5,201.1328 L599.5,186 L589.5,176 L344.5,176 A0,0 0 0 0 344.5,176 " fill="#EBEBEB" style="stroke:#383838;stroke-width:1.0;"/><path d="M589.5,176 L589.5,186 L599.5,186 L589.5,176 " fill="#EBEBEB" style="stroke:#383838;stroke-width:1.0;"/><text fill="#000000" font-family="sans-serif" font-size="13" lengthAdjust="spacing" textLength="234" x="350.5" y="193.0669">どっちのバージョンを用意すればいい？</text><!--MD5=[1f0424e8335360cf31ea8e102758b5b0]
class アプリケーション--><rect fill="#F8F8F8" height="23.9688" id="アプリケーション" style="stroke:#383838;stroke-width:1.5;" width="102" x="231" y="7"/><text fill="#000000" font-family="sans-serif" font-size="12" lengthAdjust="spacing" textLength="96" x="234" y="23.1387">アプリケーション</text><!--MD5=[7a42982b0fe94967c537449b0e5c61eb]
link ログ解析 to パーサー--><path codeLine="23" d="M238.74,115.69 C247.51,130.25 262.88,155.76 272.74,172.13 " fill="none" id="ログ解析-to-パーサー" style="stroke:#383838;stroke-width:1.0;stroke-dasharray:7.0,7.0;"/><polygon fill="#383838" points="275.36,176.48,274.1595,166.7046,272.7875,172.1925,267.2996,170.8205,275.36,176.48" style="stroke:#383838;stroke-width:1.0;"/><!--MD5=[bd28fe3427442532ded6d09d1aa8d0c6]
link ファイル処理 to パーサー--><path codeLine="24" d="M326.12,115.69 C317.18,130.25 301.5,155.76 291.45,172.13 " fill="none" id="ファイル処理-to-パーサー" style="stroke:#383838;stroke-width:1.0;stroke-dasharray:7.0,7.0;"/><polygon fill="#383838" points="288.77,176.48,296.8883,170.9039,291.3865,172.2193,290.0711,166.7175,288.77,176.48" style="stroke:#383838;stroke-width:1.0;"/><!--MD5=[2bdec4fa44060a287fcec21257375874]
link アプリケーション to ログ解析--><path codeLine="25" d="M275.26,31.13 C266.53,45.52 251.29,70.67 241.43,86.95 " fill="none" id="アプリケーション-to-ログ解析" style="stroke:#383838;stroke-width:1.0;stroke-dasharray:7.0,7.0;"/><polygon fill="#383838" points="238.8,91.29,246.8963,85.682,241.3997,87.019,240.0627,81.5224,238.8,91.29" style="stroke:#383838;stroke-width:1.0;"/><!--MD5=[7871ec6e42404a11863ead354f1b202c]
link アプリケーション to ファイル処理--><path codeLine="26" d="M288.88,31.13 C297.78,45.52 313.32,70.67 323.39,86.95 " fill="none" id="アプリケーション-to-ファイル処理" style="stroke:#383838;stroke-width:1.0;stroke-dasharray:7.0,7.0;"/><polygon fill="#383838" points="326.07,91.29,324.7452,81.5307,323.4431,87.0356,317.9382,85.7336,326.07,91.29" style="stroke:#383838;stroke-width:1.0;"/><!--MD5=[6db7a2e8a66cd048fef461fc62e5db17]
@startuml
' Only greyscale
skinparam monochrome true
' Display UML icons (-, +, ~, #) instead of visibility icons
skinparam classAttributeIconSize 10
' Disable class / interface / ... icons
hide circles
' Hide empty boxes
hide empty members
' Display packages as frame
skinparam packageStyle frame
' Disable shadows
skinparam shadowing false

class "ログ解析"
note left : v2.0.1のパーサーを使う

class "ファイル処理"
note right : v2.0.2のパーサーを使う

class "パーサー"
note right : どっちのバージョンを用意すればいい？

"ログ解析" ..> "パーサー"
"ファイル処理" ..> "パーサー"
"アプリケーション" ..> "ログ解析"
"アプリケーション" ..> "ファイル処理"
@enduml

@startuml
skinparam monochrome true
skinparam classAttributeIconSize 10
hide circles
hide empty members
skinparam packageStyle frame
skinparam shadowing false

class "ログ解析"
note left : v2.0.1のパーサーを使う

class "ファイル処理"
note right : v2.0.2のパーサーを使う

class "パーサー"
note right : どっちのバージョンを用意すればいい？

"ログ解析" ..> "パーサー"
"ファイル処理" ..> "パーサー"
"アプリケーション" ..> "ログ解析"
"アプリケーション" ..> "ファイル処理"
@enduml

PlantUML version 1.2021.16(Wed Dec 08 17:25:22 UTC 2021)
(GPL source distribution)
Java Runtime: OpenJDK Runtime Environment
JVM: OpenJDK 64-Bit Server VM
Default Encoding: UTF-8
Language: en
Country: null
--></g></svg>