<?xml version="1.0" encoding="UTF-8" standalone="no"?><svg xmlns="http://www.w3.org/2000/svg" xmlns:xlink="http://www.w3.org/1999/xlink" contentScriptType="application/ecmascript" contentStyleType="text/css" height="206px" preserveAspectRatio="none" style="width:585px;height:206px;background:#FFFFFF;" version="1.1" viewBox="0 0 585 206" width="585px" zoomAndPan="magnify"><defs/><g><!--MD5=[b9de251bd519f6fe970f470f555423d1]
class ログ解析--><rect codeLine="14" fill="#F8F8F8" height="23.9688" id="ログ解析" style="stroke:#383838;stroke-width:1.5;" width="54" x="205" y="92"/><text fill="#000000" font-family="sans-serif" font-size="12" lengthAdjust="spacing" textLength="48" x="208" y="108.1387">ログ解析</text><path d="M6,91.5 L6,116.6328 A0,0 0 0 0 6,116.6328 L170,116.6328 A0,0 0 0 0 170,116.6328 L170,109.5 L204.93,104 L170,101.5 L170,101.5 L160,91.5 L6,91.5 A0,0 0 0 0 6,91.5 " fill="#EBEBEB" style="stroke:#383838;stroke-width:1.0;"/><path d="M160,91.5 L160,101.5 L170,101.5 L160,91.5 " fill="#EBEBEB" style="stroke:#383838;stroke-width:1.0;"/><text fill="#000000" font-family="sans-serif" font-size="13" lengthAdjust="spacing" textLength="143" x="12" y="108.5669">v2.0.1のパーサーを使う</text><!--MD5=[a39b4b88ed57e8f8291643a52c7060c0]
class ファイル処理--><rect codeLine="17" fill="#F8F8F8" height="23.9688" id="ファイル処理" style="stroke:#383838;stroke-width:1.5;" width="78" x="301" y="92"/><text fill="#000000" font-family="sans-serif" font-size="12" lengthAdjust="spacing" textLength="72" x="304" y="108.1387">ファイル処理</text><path d="M414,91.5 L414,100 L379.3,104 L414,108 L414,116.6328 A0,0 0 0 0 414,116.6328 L578,116.6328 A0,0 0 0 0 578,116.6328 L578,101.5 L568,91.5 L414,91.5 A0,0 0 0 0 414,91.5 " fill="#EBEBEB" style="stroke:#383838;stroke-width:1.0;"/><path d="M568,91.5 L568,101.5 L578,101.5 L568,91.5 " fill="#EBEBEB" style="stroke:#383838;stroke-width:1.0;"/><text fill="#000000" font-family="sans-serif" font-size="13" lengthAdjust="spacing" textLength="143" x="420" y="108.5669">v2.0.2のパーサーを使う</text><!--MD5=[1f0424e8335360cf31ea8e102758b5b0]
class アプリケーション--><rect codeLine="20" fill="#F8F8F8" height="23.9688" id="アプリケーション" style="stroke:#383838;stroke-width:1.5;" width="102" x="231" y="7"/><text fill="#000000" font-family="sans-serif" font-size="12" lengthAdjust="spacing" textLength="96" x="234" y="23.1387">アプリケーション</text><path d="M368,6.5 L368,15 L333.03,19 L368,23 L368,31.6328 A0,0 0 0 0 368,31.6328 L480,31.6328 A0,0 0 0 0 480,31.6328 L480,16.5 L470,6.5 L368,6.5 A0,0 0 0 0 368,6.5 " fill="#EBEBEB" style="stroke:#383838;stroke-width:1.0;"/><path d="M470,6.5 L470,16.5 L480,16.5 L470,6.5 " fill="#EBEBEB" style="stroke:#383838;stroke-width:1.0;"/><text fill="#000000" font-family="sans-serif" font-size="13" lengthAdjust="spacing" textLength="91" x="374" y="23.5669">ビルドでエラー</text><!--MD5=[f919dba295a8975a5834af0af4936252]
class パーサーv2_0_1--><rect fill="#F8F8F8" height="23.9688" id="パーサーv2_0_1" style="stroke:#383838;stroke-width:1.5;" width="96" x="176" y="176.5"/><text fill="#000000" font-family="sans-serif" font-size="12" lengthAdjust="spacing" textLength="90" x="179" y="192.6387">パーサーv2_0_1</text><!--MD5=[0baa93a50334b0c59865432f12ee7f5c]
class パーサーv2_0_2--><rect fill="#F8F8F8" height="23.9688" id="パーサーv2_0_2" style="stroke:#383838;stroke-width:1.5;" width="96" x="307" y="176.5"/><text fill="#000000" font-family="sans-serif" font-size="12" lengthAdjust="spacing" textLength="90" x="310" y="192.6387">パーサーv2_0_2</text><!--MD5=[034717374a19631e3e3a1db4f184506a]
link ログ解析 to パーサーv2_0_1--><path codeLine="23" d="M230.92,116.13 C229.55,130.27 227.17,154.81 225.59,171.1 " fill="none" id="ログ解析-to-パーサーv2_0_1" style="stroke:#383838;stroke-width:1.0;stroke-dasharray:7.0,7.0;"/><polygon fill="#383838" points="225.09,176.29,229.9462,167.7216,225.5762,171.3137,221.9841,166.9437,225.09,176.29" style="stroke:#383838;stroke-width:1.0;"/><!--MD5=[fec6b3aecfc498349d6bf2b8125d3507]
link ファイル処理 to パーサーv2_0_2--><path codeLine="24" d="M342.02,116.13 C344.6,130.27 349.06,154.81 352.02,171.1 " fill="none" id="ファイル処理-to-パーサーv2_0_2" style="stroke:#383838;stroke-width:1.0;stroke-dasharray:7.0,7.0;"/><polygon fill="#383838" points="352.96,176.29,355.2782,166.7179,352.0618,171.3713,347.4083,168.155,352.96,176.29" style="stroke:#383838;stroke-width:1.0;"/><!--MD5=[2bdec4fa44060a287fcec21257375874]
link アプリケーション to ログ解析--><path codeLine="25" d="M275.26,31.19 C266.49,45.75 251.12,71.26 241.26,87.63 " fill="none" id="アプリケーション-to-ログ解析" style="stroke:#383838;stroke-width:1.0;stroke-dasharray:7.0,7.0;"/><polygon fill="#383838" points="238.64,91.98,246.7004,86.3205,241.2125,87.6925,239.8405,82.2046,238.64,91.98" style="stroke:#383838;stroke-width:1.0;"/><!--MD5=[7871ec6e42404a11863ead354f1b202c]
link アプリケーション to ファイル処理--><path codeLine="26" d="M289.82,31.19 C300,45.75 317.82,71.26 329.26,87.63 " fill="none" id="アプリケーション-to-ファイル処理" style="stroke:#383838;stroke-width:1.0;stroke-dasharray:7.0,7.0;"/><polygon fill="#383838" points="332.3,91.98,330.4135,82.3135,329.4317,87.8845,323.8607,86.9027,332.3,91.98" style="stroke:#383838;stroke-width:1.0;"/><!--MD5=[60eefcb94dbb9ef2be5471ebe70953c9]
@startuml
' Only greyscale
skinparam monochrome true
' Display UML icons (-, +, ~, #) instead of visibility icons
skinparam classAttributeIconSize 10
' Disable class / interface / ... icons
hide circles
' Hide empty boxes
hide empty members
' Display packages as frame
skinparam packageStyle frame
' Disable shadows
skinparam shadowing false

class "ログ解析"
note left : v2.0.1のパーサーを使う

class "ファイル処理"
note right : v2.0.2のパーサーを使う

class "アプリケーション"
note right : ビルドでエラー

"ログ解析" ..> "パーサーv2_0_1"
"ファイル処理" ..> "パーサーv2_0_2"
"アプリケーション" ..> "ログ解析"
"アプリケーション" ..> "ファイル処理"
@enduml

@startuml
skinparam monochrome true
skinparam classAttributeIconSize 10
hide circles
hide empty members
skinparam packageStyle frame
skinparam shadowing false

class "ログ解析"
note left : v2.0.1のパーサーを使う

class "ファイル処理"
note right : v2.0.2のパーサーを使う

class "アプリケーション"
note right : ビルドでエラー

"ログ解析" ..> "パーサーv2_0_1"
"ファイル処理" ..> "パーサーv2_0_2"
"アプリケーション" ..> "ログ解析"
"アプリケーション" ..> "ファイル処理"
@enduml

PlantUML version 1.2021.16(Wed Dec 08 17:25:22 UTC 2021)
(GPL source distribution)
Java Runtime: OpenJDK Runtime Environment
JVM: OpenJDK 64-Bit Server VM
Default Encoding: UTF-8
Language: en
Country: null
--></g></svg>