<svg width="960" height="588" xmlns="http://www.w3.org/2000/svg" xmlns:xlink="http://www.w3.org/1999/xlink" overflow="hidden"><defs><clipPath id="clip0"><rect x="185" y="66" width="960" height="588"/></clipPath><clipPath id="clip1"><rect x="185" y="66" width="726" height="438"/></clipPath><clipPath id="clip2"><rect x="185" y="66" width="726" height="438"/></clipPath><clipPath id="clip3"><rect x="185" y="66" width="726" height="438"/></clipPath><clipPath id="clip4"><rect x="484" y="418" width="661" height="236"/></clipPath><clipPath id="clip5"><rect x="484" y="418" width="661" height="236"/></clipPath><clipPath id="clip6"><rect x="420" y="180" width="784" height="693"/></clipPath></defs><g clip-path="url(#clip0)" transform="translate(-185 -66)"><g clip-path="url(#clip1)"><g clip-path="url(#clip2)"><g clip-path="url(#clip3)"><path d="M171.647 115.25 308.284 115.25 308.284 126.135 184.175 126.135 184.175 208.049 300.882 208.049 300.882 218.934 184.175 218.934 184.175 308.868 309.707 308.868 309.707 319.753 171.647 319.753ZM320.523 115.25 335.042 115.25 399.376 205.184 465.131 115.25 554.57 1.0154 407.631 214.637 483.35 319.753 468.261 319.753 399.376 224.089 330.206 319.753 315.402 319.753 391.689 214.637 320.528 115.25ZM488.76 126.135 488.76 115.25 644.464 115.25 644.464 126.135 572.734 126.135 572.734 319.748 560.206 319.748 560.206 126.135 488.765 126.135ZM0.71127 115.25 16.369 115.25 232.257 439.015 143.039 319.753 13.8035 130.717 13.2345 319.753 0.71127 319.753ZM643.209 305.581C640.643 305.581 638.725 303.595 638.725 301.029 638.725 298.459 640.643 296.472 643.204 296.472 645.794 296.472 647.682 298.459 647.682 301.029 647.682 303.595 645.794 305.581 643.204 305.581ZM655.511 293.598 662.217 293.598C662.31 297.237 664.964 299.68 668.859 299.68 673.215 299.68 675.682 297.056 675.682 292.131L675.682 260.953 682.505 260.953 682.505 292.16C682.505 301.029 677.389 306.135 668.917 306.135 660.971 306.135 655.516 301.181 655.516 293.598ZM691.428 293.205 698.192 293.205C698.771 297.389 702.852 300.048 708.734 300.048 714.213 300.048 718.235 297.203 718.235 293.293 718.235 289.933 715.68 287.912 709.857 286.539L704.192 285.165C696.245 283.301 692.615 279.446 692.615 272.966 692.615 265.107 699.012 259.878 708.606 259.878 717.534 259.878 724.058 265.107 724.45 272.534L717.809 272.534C717.171 268.473 713.639 265.932 708.518 265.932 703.122 265.932 699.531 268.531 699.531 272.505 699.531 275.654 701.847 277.459 707.576 278.803L712.418 279.995C721.434 282.104 725.152 285.774 725.152 292.406 725.152 300.843 718.628 306.135 708.214 306.135 698.467 306.135 691.914 301.088 691.428 293.2Z" transform="matrix(1.00049 0 0 1 184.891 64.9846)"/></g></g></g><g clip-path="url(#clip4)"><g clip-path="url(#clip5)"><g clip-path="url(#clip6)"><path d="M123.348 310.212C122.121 310.212 121.814 309.598 122.428 308.678L128.871 300.393C129.485 299.473 131.019 298.859 132.247 298.859L241.787 298.859C243.015 298.859 243.322 299.779 242.708 300.7L237.492 308.678C236.878 309.598 235.344 310.519 234.423 310.519L123.348 310.212Z" fill="#5DC9E1" transform="matrix(1 0 0 1.00208 421.601 180.741)"/><path d="M77.016 338.441C75.7887 338.441 75.4818 337.827 76.0955 336.907L82.5391 328.622C83.1528 327.702 84.6869 327.088 85.9143 327.088L225.832 327.088C227.059 327.088 227.673 328.008 227.366 328.929L224.911 336.293C224.604 337.52 223.377 338.134 222.15 338.134L77.016 338.441Z" fill="#5DC9E1" transform="matrix(1 0 0 1.00208 421.601 180.741)"/><path d="M151.271 366.67C150.043 366.67 149.736 365.749 150.35 364.829L154.646 357.158C155.259 356.237 156.487 355.317 157.714 355.317L219.081 355.317C220.309 355.317 220.922 356.237 220.922 357.465L220.309 364.829C220.309 366.056 219.081 366.977 218.161 366.977L151.271 366.67Z" fill="#5DC9E1" transform="matrix(1 0 0 1.00208 421.601 180.741)"/><path d="M469.767 304.689C450.436 309.598 437.242 313.28 418.219 318.19 413.616 319.417 413.309 319.724 409.32 315.121 404.718 309.905 401.342 306.53 394.899 303.462 375.568 293.95 356.851 296.711 339.361 308.064 318.497 321.565 307.757 341.509 308.064 366.363 308.371 390.91 325.247 411.161 349.487 414.536 370.352 417.298 387.842 409.934 401.649 394.285 404.411 390.91 406.866 387.228 409.934 382.932 398.888 382.932 385.08 382.932 350.714 382.932 344.271 382.932 342.737 378.943 344.885 373.727 348.873 364.215 356.237 348.26 360.533 340.282 361.454 338.441 363.602 335.373 368.204 335.373 383.853 335.373 441.538 335.373 479.893 335.373 479.279 343.657 479.279 351.942 478.052 360.226 474.676 382.319 466.392 402.57 452.891 420.366 430.799 449.516 401.956 467.619 365.443 472.529 335.373 476.517 307.45 470.688 282.903 452.277 260.198 435.095 247.31 412.389 243.935 384.16 239.946 350.714 249.765 320.644 270.016 294.256 291.802 265.721 320.644 247.617 355.931 241.174 384.773 235.957 412.389 239.333 437.242 256.209 453.505 266.948 465.165 281.676 472.835 299.473 474.676 302.234 473.449 303.768 469.767 304.689Z" fill="#5DC9E1" transform="matrix(1 0 0 1.00208 421.601 180.741)"/><path d="M571.33 474.37C543.408 473.756 517.94 465.778 496.462 447.368 478.358 431.719 467.006 411.775 463.323 388.148 457.8 353.476 467.312 322.792 488.177 295.484 510.576 266.027 537.578 250.686 574.092 244.242 605.389 238.719 634.845 241.787 661.54 259.891 685.78 276.46 700.815 298.859 704.804 328.315 710.02 369.738 698.054 403.49 669.518 432.333 649.267 452.891 624.413 465.778 595.877 471.608 587.592 473.142 579.308 473.449 571.33 474.37ZM644.357 350.408C644.05 346.419 644.05 343.35 643.437 340.282 637.914 309.905 609.991 292.722 580.842 299.473 552.306 305.916 533.896 324.02 527.146 352.862 521.622 376.796 533.282 401.036 555.375 410.854 572.251 418.219 589.127 417.298 605.389 409.013 629.629 396.433 642.823 376.796 644.357 350.408Z" fill="#5DC9E1" transform="matrix(1 0 0 1.00208 421.601 180.741)"/></g></g></g></g></svg>