<svg xmlns="http://www.w3.org/2000/svg" viewBox="0 0 257.99 81.92">
<defs><style>
    .cls-1{fill:#e5004f;}.cls-2{fill:#0a1561;} <!-- ライトモード -->
    @media (prefers-color-scheme: dark) {
      .cls-1{fill:#e5004f;}.cls-2{fill:white;} <!-- ダークモード -->
    }
</style>
</defs><g id="レイヤー_2" data-name="レイヤー 2"><g id="レイヤー_1-2" data-name="レイヤー 1"><path class="cls-1" d="M189.26,21.62h-.14L0,37.11l189.38-8.2h0a3.64,3.64,0,0,0-.12-7.28Z"/><path class="cls-1" d="M258,4.83A4.84,4.84,0,0,0,253.15,0c-.12,0-.23,0-.34,0V0L62.86,25.86,253.49,9.66v0A4.83,4.83,0,0,0,258,4.83Z"/><path class="cls-2" d="M230.16,61.88l3.09-5.5H211.12V81.92h19l3.09-5.54H216.61V72.47h7.59L227.3,67H216.61V61.88Z"/><polygon class="cls-2" points="24.78 81.92 30.25 81.92 30.25 72.47 37.84 72.47 40.96 66.95 30.25 66.95 30.25 61.88 43.81 61.88 46.92 56.38 24.78 56.38 24.78 81.92"/><polygon class="cls-2" points="96.57 61.88 104.89 61.88 104.89 81.92 110.35 81.92 110.35 61.88 117.7 61.88 120.81 56.38 96.57 56.38 96.57 61.88"/><path class="cls-2" d="M75.89,70.85a5.54,5.54,0,0,1-11.07,0V56.38H59.28V70.85a11.07,11.07,0,1,0,22.13,0V56.38H75.89Z"/><path class="cls-2" d="M150.41,70.85a5.53,5.53,0,0,1-11,0V56.38h-5.52V70.85a11.06,11.06,0,1,0,22.11,0V56.38h-5.54Z"/><path class="cls-2" d="M193.21,65.06a8.68,8.68,0,0,0-8.67-8.68h-12V81.92h5.53V73.73h4.19l8.17,8.19h6.92l-9.06-9.08A8.68,8.68,0,0,0,193.21,65.06ZM178.1,61.88h6.44a3.19,3.19,0,0,1,3.17,3.18,3.15,3.15,0,0,1-3.17,3.15H178.1Z"/></g></g>
</svg>
